<svg version="1.1" id="Layer_1" xmlns="http://www.w3.org/2000/svg" xmlns:xlink="http://www.w3.org/1999/xlink" x="0px" y="0px"
	 width="100%" viewBox="0 0 1800 1920" enable-background="new 0 0 1800 1920" xml:space="preserve">
<path fill="#FFFFFF" opacity="1.000000" stroke="none" 
	d="
M0.999986,1775.000000 
	C1.000000,1183.756226 1.000000,592.512451 1.000000,1.000000 
	C293.032684,1.000000 585.065430,1.000000 877.371033,1.397506 
	C872.541992,2.161538 867.416321,2.328129 862.342834,2.932855 
	C848.311279,4.605327 834.143188,5.660167 820.313171,8.395557 
	C780.682922,16.233902 742.508179,28.878799 706.627808,47.466141 
	C687.498779,57.375668 669.081055,68.817543 651.049072,80.645226 
	C628.372620,95.519341 607.722534,113.126205 588.456421,132.195663 
	C577.038574,143.496918 566.023926,155.299850 555.771973,167.660141 
	C543.802246,182.091339 532.351990,197.018433 521.583374,212.366806 
	C501.134857,241.511963 484.496338,272.828552 470.290161,305.479218 
	C458.147827,333.386475 448.238617,362.040802 440.578430,391.468842 
	C433.311584,419.385895 427.676483,447.632111 425.065887,476.397430 
	C423.354279,495.257019 421.228210,514.131714 420.756409,533.036255 
	C420.289795,551.733032 421.245789,570.501343 422.370209,589.190613 
	C423.276154,604.248840 424.759949,619.329834 427.076294,634.231445 
	C430.113739,653.772156 433.668976,673.269958 437.983368,692.566772 
	C447.045898,733.100037 461.201202,771.960571 479.006683,809.426086 
	C492.898804,838.657288 508.940155,866.755859 528.395813,892.676270 
	C541.333374,909.912842 554.731323,926.877380 568.976807,943.034790 
	C579.726074,955.226746 591.653381,966.513000 603.945251,977.177917 
	C618.978638,990.221375 634.374023,1002.997009 650.617798,1014.464966 
	C684.951477,1038.704224 722.135620,1057.675537 762.012756,1071.216797 
	C784.368164,1078.807983 807.146362,1084.503296 830.444763,1088.514404 
	C851.580078,1092.152954 872.842712,1093.760986 894.181213,1094.733398 
	C901.925598,1095.086182 909.748962,1094.496094 917.495422,1093.847412 
	C933.858521,1092.476807 950.229309,1091.077271 966.533630,1089.153076 
	C989.540222,1086.437622 1011.867371,1080.497681 1033.836060,1073.342651 
	C1066.678955,1062.645874 1097.826172,1048.163940 1127.349365,1030.218018 
	C1154.464233,1013.736084 1179.861450,994.878113 1203.013916,973.228088 
	C1227.346069,950.475159 1250.356323,926.329285 1269.214722,898.752686 
	C1283.416748,877.984863 1297.023438,856.735352 1309.585205,834.945068 
	C1318.616455,819.278992 1326.359375,802.718018 1333.109131,785.925964 
	C1342.157837,763.414429 1350.680664,740.589905 1357.629639,717.361450 
	C1366.496704,687.720642 1373.132080,657.443420 1376.004883,626.519531 
	C1378.013672,604.896057 1380.077637,583.262451 1381.299683,561.587280 
	C1381.960938,549.859985 1380.717529,538.036743 1380.671509,526.255493 
	C1380.586304,504.461273 1378.617310,482.837646 1375.047852,461.366577 
	C1372.230469,444.419739 1369.504761,427.436005 1365.926758,410.641541 
	C1357.244629,369.889740 1343.686035,330.686310 1326.210938,292.914215 
	C1312.119141,262.455536 1295.588623,233.327805 1276.086060,205.921661 
	C1255.226929,176.609085 1232.129761,149.347885 1205.668457,124.855896 
	C1184.895020,105.628677 1162.841064,88.214272 1139.177368,72.720009 
	C1115.084351,56.944592 1089.639648,43.843941 1063.066895,32.827705 
	C1035.119873,21.241665 1006.210144,12.798157 976.471313,7.603925 
	C960.140747,4.751579 943.482361,3.779935 926.976562,1.917730 
	C925.962769,1.803355 924.991211,1.314573 924.000000,0.999996 
	C1216.289062,1.000000 1508.578003,1.000000 1801.000000,1.000000 
	C1801.000000,592.032715 1801.000000,1183.065430 1800.592529,1774.385742 
	C1798.934448,1758.745850 1798.568237,1742.687134 1796.228516,1726.921265 
	C1792.625244,1702.642090 1788.491577,1678.375244 1783.019043,1654.461060 
	C1778.830933,1636.159546 1772.482300,1618.327148 1766.638062,1600.435303 
	C1755.940308,1567.684814 1741.077759,1536.720093 1724.308472,1506.745850 
	C1708.213501,1477.976929 1689.716064,1450.751465 1668.827271,1425.137695 
	C1650.783691,1403.012695 1632.108276,1381.532959 1610.653442,1362.643188 
	C1595.922852,1349.673706 1581.258667,1336.580811 1565.885864,1324.399780 
	C1539.100464,1303.175293 1510.241699,1284.978027 1479.935059,1269.217651 
	C1465.004395,1261.453369 1449.592041,1254.581299 1434.209229,1247.728394 
	C1407.326416,1235.752197 1379.396240,1226.728271 1350.934937,1219.365356 
	C1322.337158,1211.967285 1293.371216,1206.502686 1263.907837,1203.998535 
	C1247.326538,1202.589478 1230.721313,1200.414062 1214.124634,1200.393433 
	C1013.464966,1200.143677 812.804810,1200.217651 612.144775,1200.271240 
	C601.365051,1200.274048 590.562134,1200.500977 579.810852,1201.227539 
	C560.596924,1202.525757 541.324158,1203.586792 522.243225,1206.044922 
	C502.617065,1208.573242 482.989075,1211.779541 463.718353,1216.231934 
	C422.002533,1225.869995 381.786407,1240.078369 343.138672,1258.622437 
	C313.174164,1273.000000 284.596313,1289.697876 257.336731,1308.729126 
	C232.391678,1326.144165 208.934998,1345.378784 186.934097,1366.315674 
	C174.914536,1377.753906 163.360794,1389.799072 152.633255,1402.449463 
	C137.397156,1420.416382 122.281509,1438.597290 108.608780,1457.753418 
	C84.001366,1492.229370 64.044220,1529.424561 47.493332,1568.455078 
	C35.934578,1595.713135 26.415068,1623.679565 19.344673,1652.362793 
	C14.337912,1672.674316 10.482339,1693.345947 7.493139,1714.056030 
	C4.698831,1733.415894 3.732089,1753.038818 1.916660,1772.541870 
	C1.838396,1773.382446 1.315658,1774.181519 0.999986,1775.000000 
z"/>
<path fill="#000000" opacity="1.000000" stroke="none" 
	d="
M0.999986,1775.468628 
	C1.315658,1774.181519 1.838396,1773.382446 1.916660,1772.541870 
	C3.732089,1753.038818 4.698831,1733.415894 7.493139,1714.056030 
	C10.482339,1693.345947 14.337912,1672.674316 19.344673,1652.362793 
	C26.415068,1623.679565 35.934578,1595.713135 47.493332,1568.455078 
	C64.044220,1529.424561 84.001366,1492.229370 108.608780,1457.753418 
	C122.281509,1438.597290 137.397156,1420.416382 152.633255,1402.449463 
	C163.360794,1389.799072 174.914536,1377.753906 186.934097,1366.315674 
	C208.934998,1345.378784 232.391678,1326.144165 257.336731,1308.729126 
	C284.596313,1289.697876 313.174164,1273.000000 343.138672,1258.622437 
	C381.786407,1240.078369 422.002533,1225.869995 463.718353,1216.231934 
	C482.989075,1211.779541 502.617065,1208.573242 522.243225,1206.044922 
	C541.324158,1203.586792 560.596924,1202.525757 579.810852,1201.227539 
	C590.562134,1200.500977 601.365051,1200.274048 612.144775,1200.271240 
	C812.804810,1200.217651 1013.464966,1200.143677 1214.124634,1200.393433 
	C1230.721313,1200.414062 1247.326538,1202.589478 1263.907837,1203.998535 
	C1293.371216,1206.502686 1322.337158,1211.967285 1350.934937,1219.365356 
	C1379.396240,1226.728271 1407.326416,1235.752197 1434.209229,1247.728394 
	C1449.592041,1254.581299 1465.004395,1261.453369 1479.935059,1269.217651 
	C1510.241699,1284.978027 1539.100464,1303.175293 1565.885864,1324.399780 
	C1581.258667,1336.580811 1595.922852,1349.673706 1610.653442,1362.643188 
	C1632.108276,1381.532959 1650.783691,1403.012695 1668.827271,1425.137695 
	C1689.716064,1450.751465 1708.213501,1477.976929 1724.308472,1506.745850 
	C1741.077759,1536.720093 1755.940308,1567.684814 1766.638062,1600.435303 
	C1772.482300,1618.327148 1778.830933,1636.159546 1783.019043,1654.461060 
	C1788.491577,1678.375244 1792.625244,1702.642090 1796.228516,1726.921265 
	C1798.568237,1742.687134 1798.934448,1758.745850 1800.592529,1774.836670 
	C1801.000000,1787.020874 1801.000000,1799.041870 1800.615234,1811.704834 
	C1799.373291,1818.002075 1798.912964,1823.752075 1797.590698,1829.296387 
	C1791.802490,1853.566162 1779.326538,1873.893677 1760.863647,1890.635376 
	C1747.326660,1902.910156 1731.872803,1911.687134 1714.203491,1916.389771 
	C1707.532471,1918.165283 1700.738159,1919.476929 1694.000000,1921.000000 
	C1165.645752,1921.000000 637.291565,1921.000000 108.319626,1920.608887 
	C97.532173,1917.774902 86.891327,1916.513794 77.275848,1912.680664 
	C39.382851,1897.573975 15.348224,1869.731812 4.745957,1830.376221 
	C3.122935,1824.351685 2.230400,1818.130371 0.999998,1812.000000 
	C1.000000,1799.979126 1.000000,1787.958130 0.999986,1775.468628 
z"/>
<path fill="#000000" opacity="1.000000" stroke="none" 
	d="
M923.531372,0.999996 
	C924.991211,1.314573 925.962769,1.803355 926.976562,1.917730 
	C943.482361,3.779935 960.140747,4.751579 976.471313,7.603925 
	C1006.210144,12.798157 1035.119873,21.241665 1063.066895,32.827705 
	C1089.639648,43.843941 1115.084351,56.944592 1139.177368,72.720009 
	C1162.841064,88.214272 1184.895020,105.628677 1205.668457,124.855896 
	C1232.129761,149.347885 1255.226929,176.609085 1276.086060,205.921661 
	C1295.588623,233.327805 1312.119141,262.455536 1326.210938,292.914215 
	C1343.686035,330.686310 1357.244629,369.889740 1365.926758,410.641541 
	C1369.504761,427.436005 1372.230469,444.419739 1375.047852,461.366577 
	C1378.617310,482.837646 1380.586304,504.461273 1380.671509,526.255493 
	C1380.717529,538.036743 1381.960938,549.859985 1381.299683,561.587280 
	C1380.077637,583.262451 1378.013672,604.896057 1376.004883,626.519531 
	C1373.132080,657.443420 1366.496704,687.720642 1357.629639,717.361450 
	C1350.680664,740.589905 1342.157837,763.414429 1333.109131,785.925964 
	C1326.359375,802.718018 1318.616455,819.278992 1309.585205,834.945068 
	C1297.023438,856.735352 1283.416748,877.984863 1269.214722,898.752686 
	C1250.356323,926.329285 1227.346069,950.475159 1203.013916,973.228088 
	C1179.861450,994.878113 1154.464233,1013.736084 1127.349365,1030.218018 
	C1097.826172,1048.163940 1066.678955,1062.645874 1033.836060,1073.342651 
	C1011.867371,1080.497681 989.540222,1086.437622 966.533630,1089.153076 
	C950.229309,1091.077271 933.858521,1092.476807 917.495422,1093.847412 
	C909.748962,1094.496094 901.925598,1095.086182 894.181213,1094.733398 
	C872.842712,1093.760986 851.580078,1092.152954 830.444763,1088.514404 
	C807.146362,1084.503296 784.368164,1078.807983 762.012756,1071.216797 
	C722.135620,1057.675537 684.951477,1038.704224 650.617798,1014.464966 
	C634.374023,1002.997009 618.978638,990.221375 603.945251,977.177917 
	C591.653381,966.513000 579.726074,955.226746 568.976807,943.034790 
	C554.731323,926.877380 541.333374,909.912842 528.395813,892.676270 
	C508.940155,866.755859 492.898804,838.657288 479.006683,809.426086 
	C461.201202,771.960571 447.045898,733.100037 437.983368,692.566772 
	C433.668976,673.269958 430.113739,653.772156 427.076294,634.231445 
	C424.759949,619.329834 423.276154,604.248840 422.370209,589.190613 
	C421.245789,570.501343 420.289795,551.733032 420.756409,533.036255 
	C421.228210,514.131714 423.354279,495.257019 425.065887,476.397430 
	C427.676483,447.632111 433.311584,419.385895 440.578430,391.468842 
	C448.238617,362.040802 458.147827,333.386475 470.290161,305.479218 
	C484.496338,272.828552 501.134857,241.511963 521.583374,212.366806 
	C532.351990,197.018433 543.802246,182.091339 555.771973,167.660141 
	C566.023926,155.299850 577.038574,143.496918 588.456421,132.195663 
	C607.722534,113.126205 628.372620,95.519341 651.049072,80.645226 
	C669.081055,68.817543 687.498779,57.375668 706.627808,47.466141 
	C742.508179,28.878799 780.682922,16.233902 820.313171,8.395557 
	C834.143188,5.660167 848.311279,4.605327 862.342834,2.932855 
	C867.416321,2.328129 872.541992,2.161538 877.821899,1.397506 
	C893.020874,1.000000 908.041809,1.000000 923.531372,0.999996 
z"/>
<path fill="#FCFCFC" opacity="1.000000" stroke="none" 
	d="
M0.999998,1812.468628 
	C2.230400,1818.130371 3.122935,1824.351685 4.745957,1830.376221 
	C15.348224,1869.731812 39.382851,1897.573975 77.275848,1912.680664 
	C86.891327,1916.513794 97.532173,1917.774902 107.850967,1920.608887 
	C72.405701,1921.000000 36.811398,1921.000000 1.000000,1921.000000 
	C1.000000,1884.979370 1.000000,1848.958374 0.999998,1812.468628 
z"/>
<path fill="#FCFCFC" opacity="1.000000" stroke="none" 
	d="
M1694.468628,1921.000000 
	C1700.738159,1919.476929 1707.532471,1918.165283 1714.203491,1916.389771 
	C1731.872803,1911.687134 1747.326660,1902.910156 1760.863647,1890.635376 
	C1779.326538,1873.893677 1791.802490,1853.566162 1797.590698,1829.296387 
	C1798.912964,1823.752075 1799.373291,1818.002075 1800.615234,1812.173340 
	C1801.000000,1848.259644 1801.000000,1884.519165 1801.000000,1921.000000 
	C1765.646118,1921.000000 1730.291626,1921.000000 1694.468628,1921.000000 
z"/>
</svg>