<svg version="1.1" id="Layer_1" xmlns="http://www.w3.org/2000/svg" xmlns:xlink="http://www.w3.org/1999/xlink" x="0px" y="0px"
	 width="100%" viewBox="0 0 50 50" enable-background="new 0 0 50 50" xml:space="preserve">
<path fill="#CBD5DC" opacity="1.000000" stroke="none" 
	d="
M10.000000,51.000000 
	C7.008635,51.000000 4.017270,51.000000 1.019428,51.000008 
	C1.012952,34.389946 1.012952,17.779884 1.012952,1.084910 
	C17.561749,1.084910 34.123997,1.084910 50.843132,1.084910 
	C50.843132,17.665451 50.843132,34.332615 50.843132,51.000000 
	C48.300095,51.000000 45.641094,51.000000 42.534218,50.611923 
	C40.341816,40.971870 33.731308,35.480835 24.867020,35.920551 
	C16.997654,36.310917 10.669063,42.729935 10.000000,51.000000 
M19.980234,14.415208 
	C18.830746,18.105114 17.067846,21.735250 16.700890,25.501404 
	C16.318880,29.422026 18.959959,31.930874 23.033960,32.457409 
	C27.244368,33.001579 31.518635,33.293583 34.303425,29.258783 
	C36.695435,25.793074 35.569706,17.895975 32.349720,14.797820 
	C28.739195,11.323904 24.722551,11.159722 19.980234,14.415208 
z"/>
<path fill="#667887" opacity="1.000000" stroke="none" 
	d="
M10.468657,51.000000 
	C10.669063,42.729935 16.997654,36.310917 24.867020,35.920551 
	C33.731308,35.480835 40.341816,40.971870 42.043167,50.611923 
	C31.645771,51.000000 21.291544,51.000000 10.468657,51.000000 
z"/>
<path fill="#687988" opacity="1.000000" stroke="none" 
	d="
M20.273426,14.166830 
	C24.722551,11.159722 28.739195,11.323904 32.349720,14.797820 
	C35.569706,17.895975 36.695435,25.793074 34.303425,29.258783 
	C31.518635,33.293583 27.244368,33.001579 23.033960,32.457409 
	C18.959959,31.930874 16.318880,29.422026 16.700890,25.501404 
	C17.067846,21.735250 18.830746,18.105114 20.273426,14.166830 
z"/>
</svg>